<svg width="80" height="50" viewBox="0 0 80 50" fill="none" xmlns="http://www.w3.org/2000/svg">
  <rect width="80" height="50" rx="8" fill="black"/>
  <path d="M25 20C25 18.5 26 17.5 27.5 17.5C28.5 17.5 29.5 18 30 18.5C30.5 18 31.5 17.5 32.5 17.5C34 17.5 35 18.5 35 20V30H33V20.5C33 19.5 32.5 19 31.5 19C30.5 19 30 19.5 30 20.5V30H28V20.5C28 19.5 27.5 19 26.5 19C25.5 19 25 19.5 25 20.5V30H23V20H25Z" fill="white"/>
  <path d="M40 17.5C42.5 17.5 44.5 19.5 44.5 22V28C44.5 30.5 42.5 32.5 40 32.5C37.5 32.5 35.5 30.5 35.5 28V22C35.5 19.5 37.5 17.5 40 17.5ZM40 19.5C38.5 19.5 37.5 20.5 37.5 22V28C37.5 29.5 38.5 30.5 40 30.5C41.5 30.5 42.5 29.5 42.5 28V22C42.5 20.5 41.5 19.5 40 19.5Z" fill="white"/>
  <path d="M50 17.5C52 17.5 53.5 19 53.5 21V29C53.5 31 52 32.5 50 32.5C48 32.5 46.5 31 46.5 29V21C46.5 19 48 17.5 50 17.5ZM50 19.5C49 19.5 48.5 20 48.5 21V29C48.5 30 49 30.5 50 30.5C51 30.5 51.5 30 51.5 29V21C51.5 20 51 19.5 50 19.5Z" fill="white"/>
  <text x="40" y="42" text-anchor="middle" fill="white" font-family="Arial, sans-serif" font-size="8" font-weight="normal">Pay</text>
</svg>

